<?xml version="1.0" encoding="utf-8"?>
<svg viewBox="97.181 160.024 279.617 165.41" xmlns="http://www.w3.org/2000/svg">
  <g transform="matrix(0.1, 0, 0, -0.1, -19.661669, 473.06955)" fill="#000000" stroke="none">
    <path d="M 1270.153 3019.39 C 1270.153 3009.39 1267.153 2977.39 1264.153 2949.39 C 1256.153 2889.39 1270.153 2878.39 1290.153 2926.39 C 1313.153 2980.39 1354.153 3006.39 1419.153 3006.39 C 1516.153 3006.39 1511.153 3025.39 1508.153 2681.39 L 1505.153 2381.39 L 1463.153 2366.39 C 1439.153 2358.39 1420.153 2348.39 1420.153 2344.39 C 1420.153 2340.39 1483.153 2336.39 1560.153 2336.39 C 1693.153 2336.39 1737.153 2346.39 1670.153 2361.39 C 1609.153 2374.39 1610.153 2370.39 1610.153 2686.39 C 1610.153 3018.39 1607.153 3006.39 1696.153 3006.39 C 1767.153 3006.39 1804.153 2986.39 1826.153 2936.39 C 1856.153 2868.39 1867.153 2889.39 1854.153 2990.39 L 1847.153 3036.39 L 1559.153 3036.39 C 1290.153 3036.39 1270.153 3035.39 1270.153 3019.39 Z" style="fill: rgb(0, 74, 173);"/>
    <path d="M 1930.153 3031.39 C 1930.153 3028.39 1944.153 3020.39 1960.153 3014.39 C 1977.153 3008.39 1992.153 2995.39 1995.153 2983.39 C 1998.153 2971.39 1999.153 2831.39 1998.153 2671.39 L 1995.153 2381.39 L 1963.153 2367.39 C 1945.153 2359.39 1930.153 2350.39 1930.153 2347.39 C 1930.153 2344.39 2035.153 2341.39 2163.153 2341.39 C 2385.153 2342.39 2397.153 2343.39 2443.153 2365.39 C 2508.153 2397.39 2542.153 2444.39 2548.153 2510.39 C 2556.153 2606.39 2512.153 2662.39 2402.153 2696.39 L 2346.153 2713.39 L 2386.153 2726.39 C 2470.153 2753.39 2510.153 2802.39 2510.153 2878.39 C 2510.153 2938.39 2480.153 2983.39 2422.153 3009.39 C 2379.153 3029.39 2356.153 3031.39 2153.153 3034.39 C 2030.153 3036.39 1930.153 3035.39 1930.153 3031.39 Z M 2355.153 2992.39 C 2396.153 2965.39 2411.153 2932.39 2411.153 2871.39 C 2411.153 2769.39 2370.153 2734.39 2239.153 2728.39 C 2168.153 2724.39 2145.153 2727.39 2125.153 2740.39 C 2100.153 2757.39 2099.153 2758.39 2102.153 2874.39 C 2105.153 2987.39 2106.153 2991.39 2130.153 3004.39 C 2165.153 3022.39 2321.153 3014.39 2355.153 2992.39 Z M 2337.153 2680.39 C 2391.153 2665.39 2435.153 2625.39 2446.153 2580.39 C 2450.153 2566.39 2450.153 2530.39 2448.153 2500.39 C 2444.153 2457.39 2437.153 2439.39 2415.153 2416.39 C 2378.153 2377.39 2336.153 2366.39 2223.153 2366.39 C 2098.153 2366.39 2100.153 2363.39 2100.153 2535.39 C 2100.153 2679.39 2102.153 2688.39 2145.153 2699.39 C 2174.153 2707.39 2277.153 2697.39 2337.153 2680.39 Z" style="fill: rgb(0, 74, 173);"/>
    <path d="M 2748.153 2858.39 C 2683.153 2821.39 2631.153 2787.39 2631.153 2781.39 C 2631.153 2776.39 2684.153 2741.39 2750.153 2703.39 L 2870.153 2636.39 L 2990.153 2703.39 C 3056.153 2741.39 3110.153 2776.39 3110.153 2781.39 C 3110.153 2788.39 2902.153 2912.39 2870.153 2923.39 C 2867.153 2924.39 2812.153 2895.39 2748.153 2858.39 Z" style="fill: rgb(255, 49, 49);"/>
    <path d="M 3190.153 2816.39 C 3190.153 2811.39 3196.153 2806.39 3203.153 2806.39 C 3221.153 2806.39 3278.153 2745.39 3340.153 2658.39 L 3392.153 2586.39 L 3356.153 2537.39 C 3313.153 2479.39 3241.153 2411.39 3211.153 2401.39 C 3166.153 2387.39 3194.153 2376.39 3275.153 2376.39 C 3322.153 2376.39 3360.153 2379.39 3360.153 2384.39 C 3360.153 2388.39 3351.153 2399.39 3340.153 2409.39 C 3321.153 2425.39 3321.153 2428.39 3335.153 2463.39 C 3349.153 2496.39 3396.153 2566.39 3404.153 2566.39 C 3411.153 2566.39 3490.153 2439.39 3490.153 2428.39 C 3490.153 2421.39 3481.153 2411.39 3470.153 2404.39 C 3459.153 2397.39 3450.153 2388.39 3450.153 2384.39 C 3450.153 2379.39 3495.153 2376.39 3550.153 2376.39 C 3655.153 2376.39 3672.153 2384.39 3620.153 2411.39 C 3594.153 2425.39 3521.153 2512.39 3466.153 2598.39 C 3448.153 2625.39 3448.153 2626.39 3484.153 2674.39 C 3528.153 2734.39 3604.153 2806.39 3624.153 2806.39 C 3632.153 2806.39 3642.153 2811.39 3645.153 2816.39 C 3649.153 2822.39 3618.153 2826.39 3558.153 2825.39 C 3471.153 2825.39 3466.153 2824.39 3488.153 2809.39 C 3500.153 2801.39 3510.153 2784.39 3510.153 2772.39 C 3510.153 2754.39 3446.153 2646.39 3436.153 2646.39 C 3427.153 2646.39 3350.153 2762.39 3350.153 2775.39 C 3350.153 2783.39 3357.153 2798.39 3367.153 2808.39 C 3382.153 2825.39 3379.153 2826.39 3287.153 2826.39 C 3229.153 2826.39 3190.153 2822.39 3190.153 2816.39 Z" style="fill: rgb(0, 74, 173);"/>
    <path d="M 2580.153 2557.39 L 2580.153 2418.39 L 2698.153 2351.39 C 2762.153 2314.39 2818.153 2281.39 2823.153 2279.39 C 2827.153 2277.39 2830.153 2340.39 2830.153 2420.39 L 2830.153 2564.39 L 2715.153 2630.39 C 2652.153 2666.39 2596.153 2696.39 2590.153 2696.39 C 2584.153 2696.39 2580.153 2646.39 2580.153 2557.39 Z" style="fill: rgb(255, 49, 49);"/>
    <path d="M 3023.153 2630.39 L 2910.153 2564.39 L 2910.153 2419.39 L 2910.153 2274.39 L 2933.153 2288.39 C 2945.153 2296.39 3001.153 2329.39 3058.153 2360.39 L 3160.153 2418.39 L 3160.153 2557.39 C 3160.153 2662.39 3157.153 2696.39 3148.153 2695.39 C 3141.153 2695.39 3084.153 2666.39 3023.153 2630.39 Z" style="fill: rgb(255, 49, 49);"/>
    <path d="M 1230.153 2091.39 L 1230.153 2056.39 L 2570.153 2056.39 L 3910.153 2056.39 L 3910.153 2091.39 L 3910.153 2126.39 L 2570.153 2126.39 L 1230.153 2126.39 L 1230.153 2091.39 Z" style=""/>
    <path d="M 2996.153 1924.39 C 2980.153 1909.39 2968.153 1886.39 2964.153 1861.39 C 2959.153 1825.39 2962.153 1815.39 2995.153 1772.39 C 3015.153 1746.39 3036.153 1714.39 3042.153 1701.39 C 3057.153 1668.39 3044.153 1626.39 3020.153 1626.39 C 3004.153 1626.39 3000.153 1633.39 3000.153 1661.39 C 3000.153 1695.39 2999.153 1696.39 2964.153 1696.39 L 2927.153 1696.39 L 2933.153 1651.39 C 2940.153 1588.39 2962.153 1566.39 3017.153 1566.39 C 3075.153 1566.39 3096.153 1578.39 3110.153 1622.39 C 3127.153 1672.39 3115.153 1717.39 3070.153 1778.39 C 3023.153 1840.39 3015.153 1890.39 3053.153 1884.39 C 3070.153 1882.39 3075.153 1875.39 3073.153 1853.39 C 3071.153 1827.39 3074.153 1825.39 3103.153 1828.39 C 3131.153 1831.39 3135.153 1835.39 3138.153 1863.39 C 3145.153 1934.39 3052.153 1973.39 2996.153 1924.39 Z" style="fill: rgb(255, 49, 49);"/>
    <path d="M 3223.153 1936.39 C 3198.153 1926.39 3185.153 1905.39 3177.153 1859.39 C 3171.153 1827.39 3179.153 1811.39 3240.153 1728.39 C 3268.153 1690.39 3265.153 1631.39 3235.153 1631.39 C 3220.153 1631.39 3214.153 1639.39 3212.153 1664.39 C 3209.153 1692.39 3205.153 1696.39 3180.153 1696.39 C 3144.153 1696.39 3136.153 1684.39 3145.153 1640.39 C 3154.153 1589.39 3182.153 1566.39 3233.153 1566.39 C 3287.153 1566.39 3317.153 1587.39 3326.153 1631.39 C 3336.153 1686.39 3322.153 1731.39 3279.153 1783.39 C 3235.153 1836.39 3228.153 1881.39 3265.153 1881.39 C 3279.153 1881.39 3286.153 1873.39 3288.153 1854.39 C 3291.153 1830.39 3296.153 1826.39 3321.153 1826.39 C 3348.153 1826.39 3350.153 1829.39 3350.153 1861.39 C 3350.153 1927.39 3289.153 1962.39 3223.153 1936.39 Z" style="fill: rgb(255, 49, 49);"/>
    <path d="M 1817.153 1773.39 C 1801.153 1684.39 1786.153 1601.39 1783.153 1589.39 C 1778.153 1567.39 1780.153 1566.39 1853.153 1566.39 C 1922.153 1566.39 1928.153 1568.39 1934.153 1589.39 C 1945.153 1630.39 1941.153 1636.39 1906.153 1636.39 C 1864.153 1636.39 1860.153 1642.39 1869.153 1686.39 C 1875.153 1716.39 1880.153 1721.39 1908.153 1724.39 C 1931.153 1726.39 1940.153 1732.39 1940.153 1746.39 C 1940.153 1756.39 1943.153 1771.39 1946.153 1780.39 C 1951.153 1793.39 1945.153 1796.39 1921.153 1796.39 C 1888.153 1796.39 1884.153 1807.39 1896.153 1853.39 C 1901.153 1870.39 1911.153 1876.39 1944.153 1878.39 C 1980.153 1881.39 1985.153 1884.39 1988.153 1909.39 L 1991.153 1936.39 L 1918.153 1936.39 L 1845.153 1936.39 L 1817.153 1773.39 Z" style="fill: rgb(255, 49, 49);"/>
    <path d="M 2013.153 1921.39 C 2017.153 1913.39 2029.153 1874.39 2041.153 1836.39 L 2062.153 1767.39 L 2011.153 1675.39 C 1983.153 1625.39 1960.153 1580.39 1960.153 1575.39 C 1960.153 1570.39 1973.153 1566.39 1989.153 1566.39 C 2014.153 1566.39 2023.153 1574.39 2053.153 1628.39 L 2088.153 1690.39 L 2098.153 1651.39 C 2104.153 1629.39 2110.153 1602.39 2112.153 1591.39 C 2114.153 1576.39 2124.153 1570.39 2152.153 1568.39 L 2188.153 1565.39 L 2163.153 1657.39 C 2135.153 1761.39 2132.153 1746.39 2204.153 1874.39 L 2240.153 1936.39 L 2205.153 1936.39 C 2173.153 1936.39 2168.153 1932.39 2141.153 1879.39 C 2110.153 1818.39 2107.153 1819.39 2092.153 1891.39 C 2085.153 1929.39 2082.153 1931.39 2046.153 1934.39 C 2014.153 1937.39 2008.153 1935.39 2013.153 1921.39 Z" style="fill: rgb(255, 49, 49);"/>
    <path d="M 2286.153 1909.39 C 2282.153 1885.39 2267.153 1801.39 2233.153 1598.39 C 2227.153 1565.39 2228.153 1565.39 2261.153 1568.39 C 2292.153 1571.39 2295.153 1574.39 2302.153 1616.39 C 2316.153 1703.39 2318.153 1706.39 2350.153 1706.39 C 2397.153 1706.39 2428.153 1726.39 2450.153 1771.39 C 2474.153 1821.39 2477.153 1898.39 2454.153 1920.39 C 2443.153 1932.39 2419.153 1936.39 2365.153 1936.39 C 2293.153 1936.39 2291.153 1936.39 2286.153 1909.39 Z M 2398.153 1844.39 C 2401.153 1804.39 2375.153 1766.39 2344.153 1766.39 C 2331.153 1766.39 2329.153 1774.39 2335.153 1809.39 C 2346.153 1879.39 2350.153 1887.39 2373.153 1884.39 C 2390.153 1882.39 2396.153 1873.39 2398.153 1844.39 Z" style="fill: rgb(255, 49, 49);"/>
    <path d="M 2536.153 1914.39 C 2530.153 1886.39 2480.153 1580.39 2480.153 1572.39 C 2480.153 1569.39 2495.153 1566.39 2514.153 1566.39 L 2547.153 1566.39 L 2554.153 1627.39 C 2562.153 1694.39 2574.153 1734.39 2582.153 1720.39 C 2585.153 1715.39 2595.153 1678.39 2605.153 1639.39 C 2622.153 1566.39 2627.153 1561.39 2666.153 1572.39 L 2687.153 1578.39 L 2667.153 1658.39 C 2648.153 1732.39 2648.153 1739.39 2663.153 1748.39 C 2708.153 1773.39 2729.153 1879.39 2696.153 1915.39 C 2680.153 1932.39 2665.153 1936.39 2609.153 1936.39 C 2546.153 1936.39 2540.153 1934.39 2536.153 1914.39 Z M 2645.153 1866.39 C 2654.153 1838.39 2629.153 1792.39 2603.153 1788.39 C 2583.153 1785.39 2582.153 1788.39 2586.153 1823.39 C 2589.153 1844.39 2593.153 1867.39 2596.153 1874.39 C 2602.153 1893.39 2638.153 1888.39 2645.153 1866.39 Z" style="fill: rgb(255, 49, 49);"/>
    <path d="M 2762.153 1764.39 C 2744.153 1669.39 2730.153 1585.39 2730.153 1579.39 C 2730.153 1570.39 2752.153 1566.39 2805.153 1566.39 C 2858.153 1566.39 2880.153 1570.39 2880.153 1579.39 C 2880.153 1585.39 2883.153 1601.39 2886.153 1614.39 C 2892.153 1634.39 2889.153 1636.39 2857.153 1636.39 C 2814.153 1636.39 2809.153 1642.39 2817.153 1689.39 C 2822.153 1720.39 2826.153 1725.39 2854.153 1728.39 C 2881.153 1731.39 2885.153 1735.39 2888.153 1764.39 C 2891.153 1793.39 2889.153 1796.39 2865.153 1796.39 C 2841.153 1796.39 2839.153 1799.39 2842.153 1834.39 C 2845.153 1870.39 2846.153 1871.39 2888.153 1874.39 C 2911.153 1876.39 2930.153 1880.39 2930.153 1884.39 C 2930.153 1888.39 2933.153 1901.39 2936.153 1914.39 C 2942.153 1935.39 2940.153 1936.39 2868.153 1936.39 L 2794.153 1936.39 L 2762.153 1764.39 Z" style="fill: rgb(255, 49, 49);"/>
  </g>
</svg>